<svg width="494" height="423" viewBox="0 0 494 423" fill="none" xmlns="http://www.w3.org/2000/svg">
<g clip-path="url(#clip0_2355_362)">
<g filter="url(#filter0_b_2355_362)">
<rect x="231.572" y="257.665" width="261.959" height="165.335" rx="14.1323" fill="#0A2640" fill-opacity="0.8"/>
<rect x="457.572" y="325.533" width="8.00001" height="72" rx="4" transform="rotate(90 457.572 325.533)" fill="#95ABBC"/>
<rect x="453.572" y="347.665" width="8.00001" height="68" rx="4" transform="rotate(90 453.572 347.665)" fill="#95ABBC"/>
<rect x="461.572" y="369.797" width="8.00001" height="76" rx="4" transform="rotate(90 461.572 369.797)" fill="#95ABBC"/>
<g clip-path="url(#clip1_2355_362)">
<path d="M346.218 351.295C346.218 373.346 328.386 391.197 306.42 391.197C284.454 391.197 266.622 373.346 266.622 351.295C266.622 329.243 284.454 311.393 306.42 311.393C328.386 311.393 346.218 329.243 346.218 351.295Z" stroke="#0A2640" stroke-width="13.3928"/>
<mask id="mask0_2355_362" style="mask-type:alpha" maskUnits="userSpaceOnUse" x="231" y="287" width="74" height="122">
<path d="M304.937 346.998L286.8 287.841L231.897 357.573L261.08 408.468L304.937 346.998Z" fill="#C4C4C4"/>
</mask>
<g mask="url(#mask0_2355_362)">
<path d="M346.219 351.294C346.219 373.345 328.387 391.196 306.421 391.196C284.455 391.196 266.622 373.345 266.622 351.294C266.622 329.243 284.455 311.392 306.421 311.392C328.387 311.392 346.219 329.243 346.219 351.294Z" stroke="#0DBBFC" stroke-width="13.3928"/>
</g>
<mask id="mask1_2355_362" style="mask-type:alpha" maskUnits="userSpaceOnUse" x="280" y="282" width="92" height="85">
<path d="M311.076 352.182L371.072 366.873L339.367 283.913L280.804 282.96L311.076 352.182Z" fill="#C4C4C4"/>
</mask>
<g mask="url(#mask1_2355_362)">
<path d="M286.021 385.535C267.128 374.249 260.928 349.763 272.175 330.842C283.421 311.92 307.853 305.732 326.746 317.018C345.638 328.303 351.838 352.79 340.592 371.711C329.345 390.632 304.913 396.82 286.021 385.535Z" stroke="#69E6A6" stroke-width="13.3928"/>
</g>
</g>
</g>
<ellipse cx="262.583" cy="275" rx="4.99196" ry="5" fill="#FC5B00"/>
<ellipse cx="282.551" cy="275" rx="4.99196" ry="5" fill="#ECAA00"/>
<ellipse cx="302.519" cy="275" rx="4.99196" ry="5" fill="#009D10"/>
<g filter="url(#filter1_b_2355_362)">
<g clip-path="url(#clip2_2355_362)">
<rect x="-0.326172" width="493.858" height="231.898" rx="15.0305" fill="#0A2640" fill-opacity="0.8"/>
<rect x="82.4541" y="68.1805" width="11.7769" height="54.1739" rx="5.88847" transform="rotate(90 82.4541 68.1805)" fill="#95ABBC"/>
<rect x="366.739" y="68.1091" width="11.9197" height="269.981" rx="5.95985" transform="rotate(90 366.739 68.1091)" fill="#8FB6D5"/>
<path d="M384.441 70.3059C385.217 70.3059 385.832 70.4864 386.286 70.8472C386.74 71.2081 386.967 71.7066 386.967 72.343C386.967 72.762 386.837 73.1442 386.577 73.4896C386.317 73.8349 385.902 74.1492 385.331 74.4324C386.022 74.7622 386.513 75.1095 386.804 75.4742C387.095 75.8351 387.24 76.2541 387.24 76.7314C387.24 77.4376 386.994 78.0021 386.501 78.4251C386.009 78.8441 385.333 79.0536 384.476 79.0536C383.568 79.0536 382.87 78.8557 382.381 78.46C381.892 78.0603 381.647 77.4958 381.647 76.7663C381.647 75.7924 382.241 75.0338 383.428 74.4906C382.893 74.188 382.509 73.862 382.276 73.5128C382.043 73.1597 381.927 72.7659 381.927 72.3313C381.927 71.7144 382.154 71.2236 382.608 70.8588C383.065 70.4902 383.677 70.3059 384.441 70.3059ZM382.602 76.7896C382.602 77.2552 382.763 77.618 383.085 77.878C383.411 78.1379 383.867 78.2679 384.453 78.2679C385.031 78.2679 385.481 78.1321 385.803 77.8605C386.125 77.5889 386.286 77.2164 386.286 76.743C386.286 76.3667 386.135 76.033 385.832 75.742C385.529 75.4471 385.002 75.1619 384.249 74.8864C383.671 75.1347 383.252 75.4102 382.992 75.7129C382.732 76.0116 382.602 76.3705 382.602 76.7896ZM384.429 71.0917C383.944 71.0917 383.564 71.2081 383.289 71.4409C383.013 71.6737 382.875 71.9841 382.875 72.3721C382.875 72.7291 382.99 73.0356 383.219 73.2917C383.448 73.5478 383.871 73.8038 384.488 74.0599C385.042 73.8271 385.434 73.5769 385.663 73.3091C385.896 73.0414 386.012 72.7291 386.012 72.3721C386.012 71.9802 385.871 71.6698 385.588 71.4409C385.308 71.2081 384.922 71.0917 384.429 71.0917ZM394.085 74.671C394.085 76.1416 393.852 77.2397 393.387 77.9653C392.925 78.6908 392.217 79.0536 391.262 79.0536C390.346 79.0536 389.65 78.6831 389.173 77.942C388.695 77.197 388.457 76.1067 388.457 74.671C388.457 73.1888 388.688 72.0888 389.149 71.371C389.611 70.6532 390.315 70.2943 391.262 70.2943C392.186 70.2943 392.886 70.6687 393.363 71.4176C393.844 72.1664 394.085 73.2509 394.085 74.671ZM389.435 74.671C389.435 75.9088 389.58 76.8109 389.871 77.3774C390.162 77.94 390.626 78.2213 391.262 78.2213C391.906 78.2213 392.372 77.9362 392.659 77.3658C392.95 76.7915 393.096 75.8933 393.096 74.671C393.096 73.4488 392.95 72.5545 392.659 71.988C392.372 71.4176 391.906 71.1324 391.262 71.1324C390.626 71.1324 390.162 71.4137 389.871 71.9763C389.58 72.5351 389.435 73.4333 389.435 74.671ZM396.093 72.9657C396.093 73.6254 396.165 74.1201 396.308 74.4499C396.452 74.7797 396.685 74.9446 397.007 74.9446C397.643 74.9446 397.961 74.285 397.961 72.9657C397.961 71.6543 397.643 70.9985 397.007 70.9985C396.685 70.9985 396.452 71.1615 396.308 71.4874C396.165 71.8134 396.093 72.3061 396.093 72.9657ZM398.759 72.9657C398.759 73.8504 398.609 74.5197 398.31 74.9737C398.016 75.4238 397.581 75.6488 397.007 75.6488C396.463 75.6488 396.041 75.418 395.738 74.9562C395.439 74.4945 395.29 73.831 395.29 72.9657C395.29 72.085 395.433 71.4215 395.72 70.9752C396.011 70.529 396.44 70.3059 397.007 70.3059C397.569 70.3059 398.002 70.5368 398.305 70.9985C398.607 71.4603 398.759 72.116 398.759 72.9657ZM401.215 76.3764C401.215 77.0399 401.286 77.5365 401.43 77.8663C401.574 78.1922 401.808 78.3552 402.134 78.3552C402.46 78.3552 402.701 78.1942 402.856 77.8721C403.011 77.5462 403.089 77.0476 403.089 76.3764C403.089 75.7129 403.011 75.222 402.856 74.9039C402.701 74.5818 402.46 74.4208 402.134 74.4208C401.808 74.4208 401.574 74.5818 401.43 74.9039C401.286 75.222 401.215 75.7129 401.215 76.3764ZM403.886 76.3764C403.886 77.2571 403.737 77.9245 403.438 78.3785C403.143 78.8286 402.708 79.0536 402.134 79.0536C401.583 79.0536 401.158 78.8228 400.86 78.361C400.565 77.8993 400.417 77.2377 400.417 76.3764C400.417 75.4956 400.561 74.8321 400.848 74.3859C401.139 73.9397 401.568 73.7165 402.134 73.7165C402.685 73.7165 403.114 73.9455 403.42 74.4033C403.731 74.8573 403.886 75.515 403.886 76.3764ZM402.385 70.4282L397.664 78.9372H396.809L401.529 70.4282H402.385Z" fill="white"/>
<rect x="82.4541" y="107.217" width="11.7769" height="54.1739" rx="5.88847" transform="rotate(90 82.4541 107.217)" fill="#95ABBC"/>
<rect x="176.62" y="107.444" width="11.3237" height="79.8619" rx="5.66185" transform="rotate(90 176.62 107.444)" fill="#0DBBFC"/>
<path d="M196.778 110.765C196.778 111.308 196.625 111.753 196.319 112.098C196.016 112.443 195.585 112.674 195.027 112.791V112.837C195.709 112.923 196.216 113.14 196.546 113.489C196.875 113.838 197.04 114.296 197.04 114.863C197.04 115.674 196.759 116.298 196.196 116.737C195.634 117.171 194.834 117.389 193.798 117.389C193.348 117.389 192.935 117.354 192.559 117.284C192.186 117.218 191.824 117.1 191.47 116.929V116.009C191.839 116.192 192.231 116.331 192.646 116.428C193.065 116.521 193.461 116.568 193.833 116.568C195.304 116.568 196.039 115.992 196.039 114.839C196.039 113.807 195.228 113.291 193.606 113.291H192.768V112.459H193.618C194.282 112.459 194.807 112.313 195.195 112.022C195.583 111.728 195.777 111.32 195.777 110.8C195.777 110.385 195.634 110.059 195.347 109.822C195.063 109.586 194.677 109.467 194.188 109.467C193.816 109.467 193.465 109.518 193.135 109.619C192.805 109.72 192.429 109.906 192.006 110.177L191.517 109.526C191.866 109.25 192.268 109.035 192.722 108.88C193.18 108.72 193.661 108.641 194.165 108.641C194.992 108.641 195.634 108.831 196.092 109.211C196.549 109.588 196.778 110.106 196.778 110.765ZM203.966 113.006C203.966 114.477 203.734 115.575 203.268 116.3C202.806 117.026 202.098 117.389 201.144 117.389C200.228 117.389 199.531 117.018 199.054 116.277C198.577 115.532 198.338 114.442 198.338 113.006C198.338 111.524 198.569 110.424 199.031 109.706C199.493 108.988 200.197 108.629 201.144 108.629C202.067 108.629 202.767 109.004 203.245 109.753C203.726 110.501 203.966 111.586 203.966 113.006ZM199.316 113.006C199.316 114.244 199.462 115.146 199.753 115.712C200.044 116.275 200.507 116.556 201.144 116.556C201.788 116.556 202.253 116.271 202.54 115.701C202.831 115.126 202.977 114.228 202.977 113.006C202.977 111.784 202.831 110.889 202.54 110.323C202.253 109.753 201.788 109.467 201.144 109.467C200.507 109.467 200.044 109.749 199.753 110.311C199.462 110.87 199.316 111.768 199.316 113.006ZM205.974 111.301C205.974 111.96 206.046 112.455 206.19 112.785C206.333 113.115 206.566 113.28 206.888 113.28C207.524 113.28 207.843 112.62 207.843 111.301C207.843 109.989 207.524 109.333 206.888 109.333C206.566 109.333 206.333 109.496 206.19 109.822C206.046 110.148 205.974 110.641 205.974 111.301ZM208.64 111.301C208.64 112.185 208.491 112.855 208.192 113.309C207.897 113.759 207.462 113.984 206.888 113.984C206.345 113.984 205.922 113.753 205.619 113.291C205.32 112.829 205.171 112.166 205.171 111.301C205.171 110.42 205.315 109.756 205.602 109.31C205.893 108.864 206.322 108.641 206.888 108.641C207.451 108.641 207.883 108.872 208.186 109.333C208.489 109.795 208.64 110.451 208.64 111.301ZM211.096 114.711C211.096 115.375 211.168 115.871 211.311 116.201C211.455 116.527 211.69 116.69 212.016 116.69C212.342 116.69 212.582 116.529 212.737 116.207C212.892 115.881 212.97 115.383 212.97 114.711C212.97 114.048 212.892 113.557 212.737 113.239C212.582 112.917 212.342 112.756 212.016 112.756C211.69 112.756 211.455 112.917 211.311 113.239C211.168 113.557 211.096 114.048 211.096 114.711ZM213.767 114.711C213.767 115.592 213.618 116.259 213.319 116.713C213.024 117.164 212.59 117.389 212.016 117.389C211.465 117.389 211.04 117.158 210.741 116.696C210.446 116.234 210.299 115.573 210.299 114.711C210.299 113.831 210.442 113.167 210.729 112.721C211.02 112.275 211.449 112.052 212.016 112.052C212.567 112.052 212.995 112.28 213.302 112.738C213.612 113.192 213.767 113.85 213.767 114.711ZM212.266 108.763L207.546 117.272H206.69L211.41 108.763H212.266Z" fill="white"/>
<rect x="82.4541" y="145.956" width="11.7769" height="54.1739" rx="5.88847" transform="rotate(90 82.4541 145.956)" fill="#95ABBC"/>
<rect x="414.417" y="145.885" width="11.9197" height="317.66" rx="5.95985" transform="rotate(90 414.417 145.885)" fill="white"/>
<path d="M432.882 156.011H431.939V149.947C431.939 149.442 431.955 148.965 431.986 148.515C431.904 148.596 431.813 148.682 431.712 148.771C431.611 148.86 431.15 149.238 430.327 149.906L429.815 149.242L432.067 147.502H432.882V156.011ZM441.764 151.745C441.764 153.216 441.531 154.314 441.065 155.039C440.604 155.765 439.895 156.128 438.941 156.128C438.025 156.128 437.329 155.757 436.851 155.016C436.374 154.271 436.136 153.181 436.136 151.745C436.136 150.263 436.366 149.163 436.828 148.445C437.29 147.727 437.994 147.368 438.941 147.368C439.864 147.368 440.565 147.743 441.042 148.491C441.523 149.24 441.764 150.325 441.764 151.745ZM437.113 151.745C437.113 152.983 437.259 153.885 437.55 154.451C437.841 155.014 438.305 155.295 438.941 155.295C439.585 155.295 440.051 155.01 440.338 154.44C440.629 153.865 440.774 152.967 440.774 151.745C440.774 150.523 440.629 149.628 440.338 149.062C440.051 148.491 439.585 148.206 438.941 148.206C438.305 148.206 437.841 148.488 437.55 149.05C437.259 149.609 437.113 150.507 437.113 151.745ZM448.585 151.745C448.585 153.216 448.352 154.314 447.886 155.039C447.425 155.765 446.717 156.128 445.762 156.128C444.846 156.128 444.15 155.757 443.673 155.016C443.195 154.271 442.957 153.181 442.957 151.745C442.957 150.263 443.188 149.163 443.649 148.445C444.111 147.727 444.815 147.368 445.762 147.368C446.686 147.368 447.386 147.743 447.863 148.491C448.344 149.24 448.585 150.325 448.585 151.745ZM443.935 151.745C443.935 152.983 444.08 153.885 444.371 154.451C444.662 155.014 445.126 155.295 445.762 155.295C446.406 155.295 446.872 155.01 447.159 154.44C447.45 153.865 447.595 152.967 447.595 151.745C447.595 150.523 447.45 149.628 447.159 149.062C446.872 148.491 446.406 148.206 445.762 148.206C445.126 148.206 444.662 148.488 444.371 149.05C444.08 149.609 443.935 150.507 443.935 151.745ZM450.593 150.04C450.593 150.699 450.665 151.194 450.808 151.524C450.952 151.854 451.185 152.019 451.507 152.019C452.143 152.019 452.461 151.359 452.461 150.04C452.461 148.728 452.143 148.072 451.507 148.072C451.185 148.072 450.952 148.235 450.808 148.561C450.665 148.887 450.593 149.38 450.593 150.04ZM453.258 150.04C453.258 150.924 453.109 151.594 452.81 152.048C452.515 152.498 452.081 152.723 451.507 152.723C450.963 152.723 450.54 152.492 450.238 152.03C449.939 151.568 449.79 150.905 449.79 150.04C449.79 149.159 449.933 148.495 450.22 148.049C450.511 147.603 450.94 147.38 451.507 147.38C452.069 147.38 452.502 147.611 452.805 148.072C453.107 148.534 453.258 149.19 453.258 150.04ZM455.715 153.45C455.715 154.114 455.786 154.61 455.93 154.94C456.074 155.266 456.308 155.429 456.634 155.429C456.96 155.429 457.201 155.268 457.356 154.946C457.511 154.62 457.589 154.122 457.589 153.45C457.589 152.787 457.511 152.296 457.356 151.978C457.201 151.656 456.96 151.495 456.634 151.495C456.308 151.495 456.074 151.656 455.93 151.978C455.786 152.296 455.715 152.787 455.715 153.45ZM458.386 153.45C458.386 154.331 458.237 154.998 457.938 155.452C457.643 155.902 457.208 156.128 456.634 156.128C456.083 156.128 455.658 155.897 455.36 155.435C455.065 154.973 454.917 154.312 454.917 153.45C454.917 152.569 455.061 151.906 455.348 151.46C455.639 151.014 456.068 150.79 456.634 150.79C457.185 150.79 457.614 151.019 457.92 151.477C458.231 151.931 458.386 152.589 458.386 153.45ZM456.884 147.502L452.164 156.011H451.309L456.029 147.502H456.884Z" fill="white"/>
<rect x="82.4541" y="184.695" width="11.7769" height="54.1739" rx="5.88847" transform="rotate(90 82.4541 184.695)" fill="#95ABBC"/>
<rect x="350.647" y="184.922" width="11.3237" height="253.889" rx="5.66186" transform="rotate(90 350.647 184.922)" fill="#65E4A3"/>
<path d="M366.609 194.75L370.136 187.132H365.498V186.241H371.161V187.015L367.68 194.75H366.609ZM375.014 189.553C375.91 189.553 376.614 189.776 377.126 190.222C377.643 190.664 377.901 191.272 377.901 192.044C377.901 192.925 377.619 193.615 377.057 194.116C376.498 194.616 375.726 194.867 374.74 194.867C373.782 194.867 373.05 194.713 372.546 194.407V193.476C372.818 193.65 373.155 193.788 373.559 193.889C373.962 193.986 374.36 194.034 374.752 194.034C375.435 194.034 375.964 193.873 376.341 193.551C376.721 193.229 376.911 192.764 376.911 192.154C376.911 190.967 376.184 190.373 374.729 190.373C374.36 190.373 373.867 190.43 373.25 190.542L372.75 190.222L373.07 186.241H377.301V187.132H373.896L373.681 189.687C374.127 189.597 374.571 189.553 375.014 189.553ZM380.002 188.779C380.002 189.438 380.073 189.933 380.217 190.263C380.361 190.593 380.593 190.757 380.915 190.757C381.552 190.757 381.87 190.098 381.87 188.779C381.87 187.467 381.552 186.811 380.915 186.811C380.593 186.811 380.361 186.974 380.217 187.3C380.073 187.626 380.002 188.119 380.002 188.779ZM382.667 188.779C382.667 189.663 382.518 190.333 382.219 190.787C381.924 191.237 381.49 191.462 380.915 191.462C380.372 191.462 379.949 191.231 379.647 190.769C379.348 190.307 379.198 189.644 379.198 188.779C379.198 187.898 379.342 187.234 379.629 186.788C379.92 186.342 380.349 186.119 380.915 186.119C381.478 186.119 381.911 186.35 382.213 186.811C382.516 187.273 382.667 187.929 382.667 188.779ZM385.123 192.189C385.123 192.853 385.195 193.349 385.339 193.679C385.482 194.005 385.717 194.168 386.043 194.168C386.369 194.168 386.609 194.007 386.765 193.685C386.92 193.359 386.997 192.861 386.997 192.189C386.997 191.526 386.92 191.035 386.765 190.717C386.609 190.395 386.369 190.234 386.043 190.234C385.717 190.234 385.482 190.395 385.339 190.717C385.195 191.035 385.123 191.526 385.123 192.189ZM387.795 192.189C387.795 193.07 387.645 193.737 387.347 194.191C387.052 194.641 386.617 194.867 386.043 194.867C385.492 194.867 385.067 194.636 384.768 194.174C384.473 193.712 384.326 193.051 384.326 192.189C384.326 191.308 384.47 190.645 384.757 190.199C385.048 189.753 385.476 189.529 386.043 189.529C386.594 189.529 387.023 189.758 387.329 190.216C387.64 190.67 387.795 191.328 387.795 192.189ZM386.293 186.241L381.573 194.75H380.717L385.438 186.241H386.293Z" fill="white"/>
<circle cx="18.5169" cy="18.8431" r="4.71077" fill="#FC5B00"/>
<circle cx="37.3602" cy="18.8431" r="4.71077" fill="#ECAA00"/>
<circle cx="56.203" cy="18.8431" r="4.71077" fill="#009D10"/>
</g>
</g>
<g filter="url(#filter2_b_2355_362)">
<rect x="0.747559" y="257.665" width="192.175" height="165.335" rx="15.0305" fill="#0A2640" fill-opacity="0.8"/>
</g>
<ellipse cx="22.524" cy="281.6" rx="4.90874" ry="4.75784" fill="#FC5B00"/>
<ellipse cx="42.1592" cy="281.6" rx="4.90874" ry="4.75784" fill="#ECAA00"/>
<ellipse cx="61.794" cy="281.6" rx="4.90874" ry="4.75784" fill="#009D10"/>
<rect width="9.67665" height="23.2668" rx="4.83833" transform="matrix(1 0 0 -1 26.4712 408.528)" fill="#0DBBFC"/>
<rect width="9.67665" height="13.4841" rx="4.83833" transform="matrix(1 0 0 -1 45.8247 398.745)" fill="#0DBBFC"/>
<rect x="65.1777" y="322.864" width="9.67665" height="62.3972" rx="4.83833" fill="#0DBBFC"/>
<rect x="84.5312" y="342.165" width="9.67665" height="43.0964" rx="4.83833" fill="#0DBBFC"/>
<rect x="103.884" y="302.241" width="9.67666" height="83.02" rx="4.83833" fill="#95ABBC"/>
<rect x="123.238" y="326.565" width="9.67664" height="58.6957" rx="4.83832" fill="#0DBBFC"/>
<rect x="142.591" y="315.196" width="9.67664" height="70.0647" rx="4.83832" fill="#0DBBFC"/>
<rect x="161.944" y="353.269" width="9.67667" height="31.9918" rx="4.83833" fill="#0DBBFC"/>
</g>
<defs>
<filter id="filter0_b_2355_362" x="87.5723" y="113.665" width="549.959" height="453.335" filterUnits="userSpaceOnUse" color-interpolation-filters="sRGB">
<feFlood flood-opacity="0" result="BackgroundImageFix"/>
<feGaussianBlur in="BackgroundImageFix" stdDeviation="72"/>
<feComposite in2="SourceAlpha" operator="in" result="effect1_backgroundBlur_2355_362"/>
<feBlend mode="normal" in="SourceGraphic" in2="effect1_backgroundBlur_2355_362" result="shape"/>
</filter>
<filter id="filter1_b_2355_362" x="-144.326" y="-144" width="781.858" height="519.898" filterUnits="userSpaceOnUse" color-interpolation-filters="sRGB">
<feFlood flood-opacity="0" result="BackgroundImageFix"/>
<feGaussianBlur in="BackgroundImageFix" stdDeviation="72"/>
<feComposite in2="SourceAlpha" operator="in" result="effect1_backgroundBlur_2355_362"/>
<feBlend mode="normal" in="SourceGraphic" in2="effect1_backgroundBlur_2355_362" result="shape"/>
</filter>
<filter id="filter2_b_2355_362" x="-143.252" y="113.665" width="480.175" height="453.335" filterUnits="userSpaceOnUse" color-interpolation-filters="sRGB">
<feFlood flood-opacity="0" result="BackgroundImageFix"/>
<feGaussianBlur in="BackgroundImageFix" stdDeviation="72"/>
<feComposite in2="SourceAlpha" operator="in" result="effect1_backgroundBlur_2355_362"/>
<feBlend mode="normal" in="SourceGraphic" in2="effect1_backgroundBlur_2355_362" result="shape"/>
</filter>
<clipPath id="clip0_2355_362">
<rect width="494" height="423" fill="white"/>
</clipPath>
<clipPath id="clip1_2355_362">
<rect width="93.0378" height="93.0378" fill="white" transform="translate(259.837 304.773)"/>
</clipPath>
<clipPath id="clip2_2355_362">
<rect x="-0.326172" width="493.858" height="231.898" rx="15.0305" fill="white"/>
</clipPath>
</defs>
</svg>
